<svg xmlns="http://www.w3.org/2000/svg" viewBox="0 0 304.32 304.73"><defs><style>.cls-1{fill:#fff;}</style></defs><title>Asset 1</title><g id="Layer_2" data-name="Layer 2"><g id="Слой_1" data-name="Слой 1"><path class="cls-1" d="M144.09.64a15.73,15.73,0,0,1,.73,2.85c.17,3.65.31,7.3.3,11,0,2.58-.82,3.34-3.38,3.56-1.09.09-2.2,0-3.28.11a17,17,0,0,0-3.52.82,2.44,2.44,0,0,0-1.6,2.77,2.41,2.41,0,0,0,2,2.24,5.86,5.86,0,0,0,1.79.31c3.71-.17,7.41-.42,11.12-.57a4.22,4.22,0,0,0,3.9-4.28c0-2.62,0-5.23.05-7.85s.08-5.1.15-7.66a7.43,7.43,0,0,1,.27-1.61c.48-2,1-2.4,3.05-2.25,1.88.13,3.75.4,5.62.59,3.7.36,7.4.6,11.08,1.1,4.09.55,8.16,1.25,12.21,2.07,2.33.47,2.88,1.56,2.38,3.86-.59,2.67-1.21,5.33-1.84,8a13.17,13.17,0,0,1-.62,1.9c-1,2.45-1.47,2.83-4.08,2.72-1.69-.06-3.38-.32-5.08-.48a14.89,14.89,0,0,0-1.64-.07,2.09,2.09,0,0,0-2.28,1.43,2.7,2.7,0,0,0,.73,3,5.28,5.28,0,0,0,1.37.89,14.74,14.74,0,0,0,2.26.69c3,.67,6.06,1.29,9.08,2,1.81.4,2.45.24,3.27-1.4a23.61,23.61,0,0,0,1.5-3.9c1.25-4.14,2.4-8.3,3.66-12.43,1-3.37,1.65-3.82,5-2.59,6.22,2.28,12.36,4.8,18.51,7.25a25.51,25.51,0,0,1,3.62,1.72c1.94,1.13,2.37,2.43,1.34,4.45-1.72,3.36-3.54,6.66-5.4,9.94-.87,1.53-1.28,1.66-3,1.21a30.11,30.11,0,0,1-3.06-1.18,16.2,16.2,0,0,0-2.57-.87,2.77,2.77,0,0,0-3.23,1.78c-.48,1.2-.13,2.1,1.25,3.07a17.38,17.38,0,0,0,1.71,1.05c2,1,4,2.09,6,3.09s3.49.77,4.79-1.28c1.5-2.35,2.87-4.8,4.31-7.19s3-4.87,4.43-7.35a2.42,2.42,0,0,1,3.08-1.19,6.41,6.41,0,0,1,2,.9c5.65,4,11.28,8.08,16.91,12.13l.14.12c3.14,2.54,3.26,3.7.66,6.72-1.75,2-3.52,4-5.29,6.05-.36.41-.74.81-1.13,1.19-1.65,1.62-2.2,1.69-4.09.4-.8-.54-1.53-1.2-2.3-1.79s-1.52-1.22-2.34-1.74c-1.53-1-2.21-.89-3.23.19A3,3,0,0,0,231,49.9a9,9,0,0,0,1.37,1.46c2.16,1.87,4.35,3.71,6.53,5.56a9.44,9.44,0,0,0,1,.75,2.34,2.34,0,0,0,3.31-.12,15,15,0,0,0,1.62-1.47c3.14-3.24,6.26-6.49,9.4-9.71a18.2,18.2,0,0,1,2.16-2,2,2,0,0,1,2.83,0,11.88,11.88,0,0,1,1.61,1.48,219.18,219.18,0,0,1,16.9,20.6c2.6,3.58,1.74,4-1.07,5.9-2.38,1.58-4.79,3.13-7.2,4.68a13,13,0,0,1-1.76,1,2.67,2.67,0,0,1-3.32-.66c-.84-1-1.59-2-2.38-3s-1.59-2.16-2.51-3.12a2.32,2.32,0,0,0-3.29-.39A2.59,2.59,0,0,0,255.06,74a5.37,5.37,0,0,0,.72,1.46c2.06,3.09,4.11,6.19,6.24,9.23,1.83,2.61,2.7,2.8,5.45,1.24,4-2.24,7.91-4.56,11.87-6.83a22.29,22.29,0,0,1,2.42-1.27,2.67,2.67,0,0,1,3.64,1.09,14.25,14.25,0,0,1,1,1.75A227.15,227.15,0,0,1,297,105.48c.08.22.17.45.24.69.68,2.34.32,3.23-2,4-3.69,1.23-7.43,2.3-11.15,3.45a2,2,0,0,1-2.29-.68,12.24,12.24,0,0,1-1.45-2.5c-.48-1.12-.73-2.34-1.24-3.43a13.19,13.19,0,0,0-1.73-2.76,2.06,2.06,0,0,0-2.66-.41c-1,.43-1.64,1.05-1.46,2.22a27.77,27.77,0,0,0,.59,3.4c.71,2.45,1.54,4.87,2.32,7.3.1.29.19.57.31.85,1.14,2.8,2.29,3.53,5.22,2.87,4.21-.95,8.38-2.06,12.57-3.1a25.24,25.24,0,0,1,3.19-.7c1.78-.18,2.33.14,2.88,1.81a37.67,37.67,0,0,1,1.39,5.28c.77,4.5,1.46,9,2.1,13.52.27,1.92.35,3.88.45,5.82a8,8,0,0,1-.21,1.81,2.13,2.13,0,0,1-2.11,1.92c-3.89.18-7.78.36-11.67.41a3.26,3.26,0,0,1-3.38-2.78c-.19-.82-.25-1.68-.41-2.51a19.89,19.89,0,0,0-.75-3.18,2,2,0,0,0-3-1.15,3.49,3.49,0,0,0-2.12,2.57,2.58,2.58,0,0,0-.08.91c.38,3.13.7,6.28,1.22,9.39.26,1.6,1.07,2.16,2.87,2.25,2.8.12,5.6.13,8.4.17,2.55,0,5.11,0,7.67,0,3,.07,3.61.68,3.62,3.7a83.77,83.77,0,0,1-1.56,17.23c-.34,1.66-.37,3.39-.62,5.07-.34,2.38-1.26,3.15-3.68,3a22.17,22.17,0,0,1-3.44-.44c-2.44-.52-4.86-1.09-7.28-1.68-1.92-.48-2.54-1.27-2.47-3.25,0-1.09.25-2.17.31-3.26a18.07,18.07,0,0,0,0-3.45,2.15,2.15,0,0,0-2.12-2.12,2.72,2.72,0,0,0-2.92,1.43,6.57,6.57,0,0,0-.63,1.89c-.57,3-1.14,6.09-1.64,9.15-.53,3.21-.2,3,2.2,3.9a63.5,63.5,0,0,0,6.85,1.87c2.94.75,5.9,1.47,8.84,2.22a8.57,8.57,0,0,1,1.21.4c2.16.92,2.54,1.5,1.87,3.78q-1.28,4.38-2.88,8.66-3,8.1-6.29,16.14a16.67,16.67,0,0,1-2,3.25,1.92,1.92,0,0,1-2.28.73,21.06,21.06,0,0,1-2.72-1c-2.12-1.05-4.21-2.19-6.31-3.29-3.69-1.94-4.22-3.59-2.37-7.37a46.33,46.33,0,0,0,2-4.3,2.79,2.79,0,0,0-3.16-3.74,2.56,2.56,0,0,0-1.46.91,14.71,14.71,0,0,0-1.51,2.5q-2.08,4.15-4.09,8.35c-1.59,3.34-1.21,4.55,2,6.4,3.79,2.2,7.59,4.37,11.37,6.59a13.55,13.55,0,0,1,2.5,1.82c1.14,1.08,1.22,1.84.54,3.26a11.87,11.87,0,0,1-.82,1.42,210.46,210.46,0,0,1-15.47,20.78,20.14,20.14,0,0,1-2,2.11c-1.2,1.06-1.93,1.08-3.29.25a5.55,5.55,0,0,1-1-.75c-2.55-2.44-5.13-4.86-7.61-7.36-1.46-1.48-1.47-2.7-.18-4.37.77-1,1.67-1.93,2.48-2.92a26.33,26.33,0,0,0,1.89-2.46,2.29,2.29,0,0,0-.27-3.14,2.65,2.65,0,0,0-3.47-.57,9.83,9.83,0,0,0-1.8,1.54c-2.23,2.41-4.45,4.83-6.64,7.29-1.8,2-1.86,3.24,0,5.25,3,3.23,6.05,6.34,9.06,9.52a35.86,35.86,0,0,1,2.79,3.13c.95,1.26.89,1.7-.11,2.9a11.54,11.54,0,0,1-1.66,1.69q-8.53,6.72-17.09,13.4a3.21,3.21,0,0,1-.3.21c-2.91,2-4.24,1.82-6.18-1.09-1.79-2.68-3.47-5.43-5.08-8.23-1.26-2.19-1-3.11,1-4.65.77-.6,1.63-1.08,2.37-1.7a9,9,0,0,0,1.73-1.86,2.45,2.45,0,0,0-.36-3.17,2.33,2.33,0,0,0-3-.59,12,12,0,0,0-1.94,1c-2,1.31-4,2.62-5.88,4s-2.29,2.45-1.08,4.66c2.26,4.1,4.64,8.14,6.94,12.22a20.51,20.51,0,0,1,1.46,2.93,2.24,2.24,0,0,1-.89,3,10.11,10.11,0,0,1-1.87,1.13c-6.3,2.88-12.58,5.82-18.94,8.6-3.65,1.59-4.59,1.09-6-2.67-1-2.68-1.85-5.4-2.77-8.11a5.69,5.69,0,0,1-.25-.87c-.45-2.31-.05-3.23,2.06-4.26,1.47-.72,3-1.23,4.53-1.93a2.71,2.71,0,0,0,1.59-3.31c-.42-1.79-1.63-2.65-3.37-2.05-3.62,1.23-7.19,2.63-10.78,4a2,2,0,0,0-1.46,2.57c.48,2.2,1,4.39,1.59,6.55.94,3.34,2,6.65,2.95,10,.79,2.65.15,3.87-2.45,4.73a5.34,5.34,0,0,1-.53.16c-4.59.86-9.19,1.73-13.79,2.58-2.45.45-4.89.93-7.36,1.3-1.8.26-3.63.38-5.45.51a8.31,8.31,0,0,1-2-.14c-1.71-.32-2.36-.93-2.47-2.66-.18-2.67-.21-5.35-.28-8,0-1.09,0-2.19,0-3.28a2.88,2.88,0,0,1,2.25-3c1.23-.33,2.5-.5,3.75-.72a44,44,0,0,0,4.47-.8,2,2,0,0,0,1.15-3.19,3.74,3.74,0,0,0-3.74-2.1,14.15,14.15,0,0,0-2.35.33,25,25,0,0,1-6.51.7c-1,0-2.06.15-3.09.25a2.72,2.72,0,0,0-2.5,2.08,11.22,11.22,0,0,0-.45,2.86c0,4.32,0,8.65,0,13a12.26,12.26,0,0,1-.09,1.82,3,3,0,0,1-2.75,2.71,6.62,6.62,0,0,1-1.09.13c-5.9,0-11.79,0-17.61-1.29-2.66-.58-5.43-.69-8.12-1.17a15.89,15.89,0,0,1-4-1.29c-1.5-.7-1.66-1.15-1.29-2.77q1-4.62,2.2-9.22a23,23,0,0,1,1-2.72,2.23,2.23,0,0,1,2.56-1.57c1.2.17,2.39.38,3.58.6s2.37.58,3.58.7c1.65.17,2.5-.55,2.83-2.17s-.39-3.1-1.73-3.41c-4-.92-8-1.79-12-2.53-1.79-.33-2.7.3-3.49,1.95a17.93,17.93,0,0,0-1,2.55c-1,3.44-1.93,6.91-3,10.34a30.32,30.32,0,0,1-1.58,4.27c-.65,1.41-1.43,1.71-3,1.4a10.88,10.88,0,0,1-1.75-.5c-6.16-2.44-12.33-4.87-18.47-7.37-1.4-.57-2.67-1.44-4-2.11a1.86,1.86,0,0,1-1-2.27,6.52,6.52,0,0,1,.54-1.74c1.62-3.06,3.25-6.12,5-9.13,1.12-2,2.56-2.38,4.71-1.51,1.3.53,2.54,1.17,3.83,1.72a2.46,2.46,0,0,0,2.85-.58,2.62,2.62,0,0,0,0-4,5.78,5.78,0,0,0-1.17-.86c-2.21-1.16-4.39-2.37-6.65-3.43-2.64-1.25-4-.85-5.49,1.66-2.17,3.6-4.22,7.27-6.34,10.89a31.28,31.28,0,0,1-2.13,3.4c-1.1,1.46-2,1.62-3.63.77a20.44,20.44,0,0,1-2.47-1.55c-5.33-3.84-10.68-7.65-15.95-11.57-3-2.26-3.13-3.61-.71-6.45,1.73-2,3.53-4,5.31-6a14.3,14.3,0,0,1,1-1c1.8-1.62,2.91-1.69,4.85-.28.89.64,1.72,1.36,2.61,2a10.79,10.79,0,0,0,1.86,1.14,2.32,2.32,0,0,0,3.11-.63,2.63,2.63,0,0,0,0-3.51,12.83,12.83,0,0,0-1.78-1.83c-1.93-1.68-3.89-3.32-5.85-5-.37-.31-.79-.57-1.18-.85a2.58,2.58,0,0,0-3.37.1,19.5,19.5,0,0,0-2,1.83c-3,3.11-6,6.24-9,9.34a18.15,18.15,0,0,1-2.2,1.91,2.09,2.09,0,0,1-2.84-.09,12.61,12.61,0,0,1-1.48-1.35,199.89,199.89,0,0,1-17-20.73c-1.87-2.61-2.4-3.24,1.05-5.73,2.51-1.82,5.17-3.45,7.8-5.08,2.43-1.5,3.56-1.29,5.36.88.77.94,1.42,2,2.16,2.94A25.25,25.25,0,0,0,45,234.26a2.17,2.17,0,0,0,3,.35,2.74,2.74,0,0,0,1.39-2.93,7.44,7.44,0,0,0-1-2.15q-2.71-4.11-5.54-8.15c-2.48-3.54-3.63-3.37-6.78-1.53-3.93,2.31-7.9,4.57-11.86,6.82-3.31,1.88-4.53,1.57-6.19-1.84A223.28,223.28,0,0,1,7.42,200c-1.06-3-.5-4.21,2.56-5.23,2.59-.86,5.23-1.61,7.85-2.39a9.67,9.67,0,0,1,1.6-.33c2.51-.33,3.56.3,4.52,2.65.79,2,1.58,3.94,2.43,5.89a1.81,1.81,0,0,0,2.14,1.27,2.72,2.72,0,0,0,2.36-1.75,4.67,4.67,0,0,0,.18-2,15.24,15.24,0,0,0-.63-2.65c-.69-2.27-1.39-4.54-2.16-6.78a18.89,18.89,0,0,0-1.32-3,2.42,2.42,0,0,0-2.78-1.27c-.66.13-1.32.25-2,.41-4.3,1.06-8.61,2.15-12.92,3.2a14.08,14.08,0,0,1-2.34.37c-1.75.14-2.4-.29-3-1.93a36.29,36.29,0,0,1-1.82-8.36C1.51,174,.89,169.84.36,165.68a30.26,30.26,0,0,1-.22-4.36,3.06,3.06,0,0,1,3-3.26c3.7-.23,7.41-.35,11.12-.41a3.23,3.23,0,0,1,3.29,2.85,25.06,25.06,0,0,1,.35,2.89,18.09,18.09,0,0,0,.18,1.82c.41,1.92,1.27,2.5,3.27,2.28a2.5,2.5,0,0,0,2.44-3c-.26-3.09-.64-6.17-1.08-9.24A2.44,2.44,0,0,0,20,153c-2.5-.1-5-.1-7.49-.11-2.8,0-5.6,0-8.4,0a11.17,11.17,0,0,1-2-.16,2.24,2.24,0,0,1-2-2,13.46,13.46,0,0,1-.15-2c.08-5.05.13-10.1,1.22-15.07.44-2,.5-4.11.74-6.16a14.24,14.24,0,0,1,.32-2.16A2.84,2.84,0,0,1,6,123c3,.61,6.08,1.22,9.1,1.9a11.39,11.39,0,0,1,2.71,1,2.53,2.53,0,0,1,1.45,2.87c-.16,1-.28,1.93-.43,2.89a23.23,23.23,0,0,0-.37,2.34,2.63,2.63,0,0,0,2.44,3A2.82,2.82,0,0,0,24.19,135c.18-.64.24-1.31.36-2,.35-1.85.71-3.69,1-5.54.2-1.08.42-2.15.54-3.23a2.88,2.88,0,0,0-1.84-3.06,10.74,10.74,0,0,0-2.07-.7c-4.19-1-8.39-2-12.58-3.07a20.82,20.82,0,0,1-2.77-.9C5,115.71,4.59,115,5.16,113.09c1.12-3.73,2.25-7.46,3.59-11.11,1.75-4.73,3.7-9.39,5.6-14.07a17.34,17.34,0,0,1,1.44-2.73c.89-1.39,1.71-1.64,3.27-1.12a8,8,0,0,1,1,.44q4.29,2.23,8.57,4.49a5.8,5.8,0,0,1,1.22.79,2.65,2.65,0,0,1,1,3.07c-.56,1.54-1.24,3-1.78,4.58a15.34,15.34,0,0,0-.94,3.48,2.35,2.35,0,0,0,1.53,2.63,2.53,2.53,0,0,0,3.17-1.07,8.33,8.33,0,0,0,.89-1.38c1.6-3.27,3.23-6.54,4.75-9.86,1-2.1.52-3.56-1.35-4.93a29.64,29.64,0,0,0-2.63-1.64c-3.42-2-6.88-3.91-10.26-6-3.56-2.16-3.8-2.86-1.43-6.49a220.5,220.5,0,0,1,15.7-21.06c2.5-3,3.73-3,6.58-.34q3.06,2.88,6.08,5.8a9.41,9.41,0,0,1,1.3,1.52,2.55,2.55,0,0,1,.08,3.08c-.73,1-1.54,2-2.32,3s-1.71,2.06-2.44,3.18a2.18,2.18,0,0,0,.35,3,2.6,2.6,0,0,0,3.14.69,7.26,7.26,0,0,0,1.87-1.43c2.31-2.5,4.57-5.06,6.85-7.59.12-.14.22-.29.33-.44,1.27-1.73,1.28-3-.19-4.56-2.65-2.86-5.37-5.65-8-8.47-1.18-1.24-2.36-2.46-3.49-3.74-1.31-1.46-1.28-2.58.07-4a26.86,26.86,0,0,1,2.42-2.23Q59,32.44,66.92,26.28a14.09,14.09,0,0,1,1.36-.92c1.94-1.19,3.13-1.09,4.38.74,2.1,3.06,4.1,6.19,6,9.36,1.08,1.79.85,2.8-.71,4.19-1,.88-2.16,1.57-3.17,2.44A5.62,5.62,0,0,0,73.21,44a2.69,2.69,0,0,0,.87,3,2.36,2.36,0,0,0,2.71.44,4.75,4.75,0,0,0,.82-.39c2.49-1.65,5-3.29,7.43-5a2.66,2.66,0,0,0,1.13-3,10.59,10.59,0,0,0-1.1-2.68c-2.19-3.86-4.44-7.69-6.65-11.54-2-3.51-1.81-4.79,1.78-6.52C86.56,15.23,93,12.41,99.5,9.61a8.75,8.75,0,0,1,3.41-.3,1.55,1.55,0,0,1,1,.8c.62,1.32,1.17,2.68,1.67,4.05.71,1.94,1.35,3.91,2,5.86,1.15,3.37.53,4.71-2.79,6.14A27.21,27.21,0,0,0,101.07,28a3.39,3.39,0,0,0-1.32,1.82,2.45,2.45,0,0,0,2.67,3,12.56,12.56,0,0,0,2.66-.54c2.25-.77,4.46-1.61,6.69-2.44.45-.17.91-.35,1.34-.56,2.83-1.36,3-1.68,2.1-4.72q-2.08-7.18-4.18-14.36c-.07-.24-.16-.47-.22-.7-.67-2.47-.35-3.11,2-4a18.27,18.27,0,0,1,2.78-.87c4.71-1,9.4-2,14.14-2.73,4-.62,8.11-.86,12.16-1.25C142.52.59,143.13.64,144.09.64ZM101.21,283.87c-1.62-.59-3-1.06-4.33-1.58s-2.45-1.09-3.71-1.5a2.34,2.34,0,0,0-2.84,1.09,2.57,2.57,0,0,0,1,4c3.58,1.65,7.26,3.1,10.9,4.62a3.86,3.86,0,0,0,.9.16,2.52,2.52,0,0,0,3-1.56c.65-1.57,1.29-3.15,1.84-4.75,1.24-3.56,2.26-7.2,3.67-10.69,1.34-3.33,1.28-3.88,5.75-2.77a122.44,122.44,0,0,0,15.31,3.34,25,25,0,0,1,5.3,1.28c1.94.67,2.49,2,2.2,4-.38,2.64-.69,5.3-1,8-.09.72-.12,1.45-.22,2.18-.27,1.94-.88,2.6-2.81,2.67-1.51.06-3-.1-4.55-.17a24.58,24.58,0,0,0-3.63-.13,4.39,4.39,0,0,0-2.25,1,1.87,1.87,0,0,0,.31,3.21,10.46,10.46,0,0,0,2.84,1.2,54.23,54.23,0,0,0,14.15,1.19,1.8,1.8,0,0,0,1.89-1.63c.2-1.19.28-2.41.38-3.62.37-4.35.62-8.72,1.12-13.07.46-4.06.83-4.18,4.93-4.32,4.86-.16,9.71-.45,14.56-.81,2.06-.15,4.08-.68,6.13-.94s3,.36,3.7,2.17a38.86,38.86,0,0,1,2.26,11.78c.11,2-.51,2.94-2.49,3.48a38.24,38.24,0,0,1-4.31.64,23.53,23.53,0,0,0-3.56.67,2.46,2.46,0,0,0-1.7,3,2.4,2.4,0,0,0,2.48,2.21,21.62,21.62,0,0,0,4.18-.2c3.18-.49,6.34-1.1,9.51-1.69a8.74,8.74,0,0,0,1.75-.49,2.67,2.67,0,0,0,1.91-2.8,18.63,18.63,0,0,0-.43-3.06c-1-3.95-2-7.88-3-11.84a18.5,18.5,0,0,1-.44-3.06c-.11-1.78.3-2.43,1.94-3.08,1.29-.52,2.64-.93,4-1.39q5.5-1.92,11-3.86c1.32-.46,2.59-1.06,3.92-1.48,2.57-.79,3.09-.56,4.42,1.72.12.21.23.43.34.65,1.38,2.84,2.77,5.68,4.12,8.54a10.34,10.34,0,0,1,.6,1.91,1.71,1.71,0,0,1-.9,2.15c-1.17.64-2.37,1.24-3.53,1.9a27.91,27.91,0,0,0-3.08,1.93,2.63,2.63,0,0,0-.56,3,2.06,2.06,0,0,0,2.34,1.33,8.32,8.32,0,0,0,2.3-.47c2.74-1.18,5.49-2.35,8.15-3.68,3.15-1.58,3.42-2.67,1.79-5.79q-3.4-6.47-6.79-12.93a11.45,11.45,0,0,1-.83-1.82,2.28,2.28,0,0,1,.79-2.77c.73-.54,1.47-1.08,2.23-1.58l12-8c.5-.34,1-.71,1.51-1,1.7-1,2.43-1,3.7.44,2.62,3,5.07,6.21,7.59,9.33a1.4,1.4,0,0,1,.1.16c.75,1.36.71,2.19-.36,3.3-.8.82-1.74,1.52-2.61,2.28s-1.69,1.39-2.44,2.18a2.34,2.34,0,0,0-.37,3,2.39,2.39,0,0,0,2.75,1.31,5.49,5.49,0,0,0,2.15-.91c2.62-2,5.26-4,7.74-6.1,2.9-2.52,2.87-3,.35-5.87-3.3-3.82-6.64-7.62-9.93-11.45-1.77-2.05-1.68-3.25.11-5.22,4.52-5,9-10.06,13.52-15.09.49-.54,1-1.05,1.51-1.59a2.21,2.21,0,0,1,2.66-.53,7.2,7.2,0,0,1,1.44.79q3.88,2.73,7.74,5.49a9.74,9.74,0,0,1,1.38,1.19c1.15,1.22,1.31,2,.47,3.44a40.63,40.63,0,0,1-2.38,3.45c-.76,1-1.63,2-2.33,3a2.44,2.44,0,0,0,.43,3.58,2.56,2.56,0,0,0,3.76,0,7.52,7.52,0,0,0,1.11-1.21c2.24-3,4.49-5.91,6.71-8.88a15,15,0,0,0,1.25-2c.88-1.67.7-2.63-.72-3.87a20.46,20.46,0,0,0-2.06-1.5c-3.87-2.53-7.77-5-11.62-7.59-2.41-1.61-2.66-2.76-1.38-5.39.06-.11.12-.21.17-.32,3.36-6.21,6.46-12.55,9.22-19.05,1.11-2.6,2.54-3.27,5.25-2.38q4.77,1.57,9.43,3.43c2.41.95,2.79,1.79,2,4.23-.52,1.68-1.33,3.28-1.84,5a11.58,11.58,0,0,0-.47,3.37,2,2,0,0,0,1.76,2,2.14,2.14,0,0,0,2.76-1.12,15.44,15.44,0,0,0,1.37-2.57c1.33-3.39,2.6-6.81,3.88-10.23a10.59,10.59,0,0,0,.41-1.59,2.31,2.31,0,0,0-1.32-2.88,43.44,43.44,0,0,0-4.4-1.7c-3.49-1.08-7-2.06-10.49-3.11-.93-.29-1.81-.71-2.72-1.07a2.07,2.07,0,0,1-1.43-2.12,26.12,26.12,0,0,1,.36-4.34,108.88,108.88,0,0,0,2.22-12,24.46,24.46,0,0,1,.93-4.64c.73-2.44,2-3.15,4.54-2.85,3,.35,5.92.64,8.88,1,.36,0,.73.07,1.09.13,2.11.38,2.48.72,2.56,2.83.06,1.82-.08,3.65,0,5.47a5,5,0,0,0,.55,2.26c.94,1.66,2.63,1.75,3.89.32a5.76,5.76,0,0,0,1.31-3.34c.15-1.57.32-3.15.4-4.73s.13-3.41.06-5.11c-.07-1.93-.93-2.86-2.84-3.22a14.35,14.35,0,0,0-2.18-.17l-13.86-.36a10.92,10.92,0,0,1-1.81-.22,1.81,1.81,0,0,1-1.62-1.71c-.15-1.39-.27-2.79-.35-4.18-.13-2.55-.14-5.11-.37-7.66-.19-2.11-.63-4.2-.94-6.31a3.47,3.47,0,0,1,2.67-4.16,9.6,9.6,0,0,1,1.07-.2c2.52-.44,5-.89,7.55-1.31a21,21,0,0,1,3.24-.42,2.5,2.5,0,0,1,2.79,2.11c.27,1.05.25,2.17.42,3.25a18.2,18.2,0,0,0,.71,3.54,2.71,2.71,0,0,0,5.22-.92,9.65,9.65,0,0,0,0-2c-.42-2.88-.82-5.77-1.35-8.63-.73-3.93-1.53-4.52-5.43-3.8-4.54.84-9.05,1.82-13.57,2.8-3.56.77-4.72.09-5.67-3.45a1.16,1.16,0,0,1,0-.18,152.68,152.68,0,0,0-5.71-17.7,10.89,10.89,0,0,1-.64-2.82,2.7,2.7,0,0,1,1.46-2.91Q272,98,277,95.64a3.34,3.34,0,0,1,.71-.17c1.78-.35,2.63-.07,3.52,1.51.74,1.32,1.25,2.76,1.89,4.14a27.17,27.17,0,0,0,1.69,3.42,2.19,2.19,0,0,0,3,1,3,3,0,0,0,1.86-3.05,7.73,7.73,0,0,0-.52-1.74q-2.42-5.72-4.87-11.41a8,8,0,0,0-1-1.72,2.27,2.27,0,0,0-3.17-.87,18.83,18.83,0,0,0-2,.94l-12.82,6.6a12.25,12.25,0,0,1-1.34.57,2.49,2.49,0,0,1-3.1-.82c-.61-.75-1.15-1.57-1.69-2.37L248.23,75.5c-.27-.41-.6-.78-.86-1.18a3.19,3.19,0,0,1,.44-4.46c2.79-2.54,5.63-5,8.55-7.41,1.66-1.36,2.39-1.27,3.95.26,1.13,1.11,2.06,2.4,3.1,3.59A28.78,28.78,0,0,0,266,69.08a2.49,2.49,0,0,0,3.34-.31,2.18,2.18,0,0,0,.64-3.06,8.51,8.51,0,0,0-1-1.53q-3.7-4.52-7.45-9a11.13,11.13,0,0,0-1.42-1.41c-1.32-1.11-2-1.17-3.44-.23a17.06,17.06,0,0,0-2,1.62c-3.37,3.16-6.72,6.36-10.1,9.51-2.62,2.43-3.43,2.38-6.17,0-4.38-3.79-8.79-7.52-13.18-11.28a17.64,17.64,0,0,1-1.71-1.64,2.53,2.53,0,0,1-.42-3,21.39,21.39,0,0,1,1.38-2.36c1.35-2,2.74-4,4.14-6a22.09,22.09,0,0,1,1.57-2c1.12-1.25,1.91-1.4,3.37-.57.89.51,1.7,1.18,2.54,1.77a32.17,32.17,0,0,0,2.86,2,2.39,2.39,0,0,0,3.53-1.1c.78-1.42.6-2.67-.94-3.84-2.9-2.21-5.9-4.28-8.89-6.38a4.64,4.64,0,0,0-1.52-.57,2,2,0,0,0-2.33.93c-1.44,2.33-3,4.6-4.47,6.89-1.65,2.55-3.25,5.14-5,7.66-1.35,2-2.7,2.2-4.85,1.12C209.8,43.79,205,41.41,200.22,39a8.1,8.1,0,0,1-1.57-.9A2.69,2.69,0,0,1,197.56,35c1.38-3.76,2.74-7.54,4.3-11.23.71-1.69,1.81-2,3.61-1.53,1.1.32,2.12.92,3.22,1.26a18.45,18.45,0,0,0,3.52.78,2.09,2.09,0,0,0,2.18-1.6,2.17,2.17,0,0,0-.61-2.65,14,14,0,0,0-2.62-1.63q-4.17-1.85-8.41-3.53c-3.05-1.2-3.91-.76-5,2.37-.15.4-.28.8-.42,1.2-1.23,3.69-2.46,7.39-3.72,11.07-.37,1.09-.8,2.17-1.26,3.23a2.57,2.57,0,0,1-2.85,1.77c-1.27-.15-2.56-.17-3.79-.44-4.22-.93-8.41-2-12.61-2.9-1.42-.32-2.87-.51-4.3-.79a26.89,26.89,0,0,1-2.65-.64A1.77,1.77,0,0,1,164.79,28a22.5,22.5,0,0,1,0-5.44c.39-2.52.54-5.08.71-7.63a1.78,1.78,0,0,1,1.83-1.86,37.91,37.91,0,0,1,4.52.13c1.63.12,3.26.44,4.89.44a2.74,2.74,0,0,0,2.66-2.54,2.55,2.55,0,0,0-1.93-2.9,11.69,11.69,0,0,0-2.13-.45c-3.07-.43-6.14-.87-9.21-1.27a31.58,31.58,0,0,0-3.63-.33c-2.29,0-2.94.53-3.28,2.76-.14,1-.15,1.94-.21,2.91q-.39,6.27-.79,12.55a7.7,7.7,0,0,1-.28,1.43c-.53,2.17-1.46,3-3.63,3.17-5.95.48-11.89.93-17.84,1.39-1.45.11-2.9.26-4.36.37-2.2.17-3.12-.47-3.68-2.6-.37-1.41-.82-2.82-1-4.25-.4-2.52-.73-5.05-.93-7.59-.14-1.67,0-1.81,1.69-2.27,1.11-.31,2.27-.42,3.39-.7A47.42,47.42,0,0,0,137,11.87c1.89-.72,2-2.79.48-4.07A3.86,3.86,0,0,0,134.37,7c-1.75.22-3.49.45-5.23.77-2.45.44-4.91.84-7.31,1.49-3.38.9-3.74,1.55-3,5s1.81,7.06,2.65,10.61c.4,1.71.69,3.45.92,5.19a3.11,3.11,0,0,1-2,3.33,12.2,12.2,0,0,1-1.35.53c-5.55,2-11.11,4-16.66,6-2.85,1-4,.69-5.33-2C95.56,35,94.18,32,92.75,29a5.16,5.16,0,0,1-.33-.85c-.58-1.76-.33-2.59,1.21-3.57a24.31,24.31,0,0,1,2.6-1.31c.88-.42,1.77-.81,2.66-1.21,1.6-.71,2-2.4,1.26-4s-1.65-1.81-3.5-1.17a4.4,4.4,0,0,0-.51.18c-2.66,1.2-5.33,2.39-8,3.64-.82.39-1.56.94-2.35,1.39a1.92,1.92,0,0,0-1,2.48,24,24,0,0,0,1.41,3.35C88.37,32,90.54,36,92.63,40c1.47,2.86,1.29,3.46-1.32,5.21l-14,9.35c-2.29,1.53-3,1.44-4.81-.6l-.24-.27c-2-2.4-4-4.8-5.9-7.21a8.49,8.49,0,0,1-1-1.52,2.76,2.76,0,0,1,.53-3.51c.84-.79,1.77-1.47,2.64-2.23A20.3,20.3,0,0,0,71,37a2.79,2.79,0,0,0-.09-3.39,2.35,2.35,0,0,0-2.95-.69,5.52,5.52,0,0,0-1.43.78c-2.38,1.8-4.76,3.6-7.1,5.44a17.42,17.42,0,0,0-2.09,2A2.28,2.28,0,0,0,57,43.89,12,12,0,0,0,58.35,46c1.37,1.63,2.8,3.21,4.2,4.81,1.81,2,3.66,4.08,5.43,6.17,1.9,2.26,1.84,3.54-.16,5.73-.78.86-1.63,1.64-2.41,2.5-3.77,4.22-7.51,8.47-11.3,12.67-1.85,2.06-3.28,2.26-5.58.7-2.62-1.77-5.16-3.66-7.73-5.52a6.62,6.62,0,0,1-1.07-1,2.59,2.59,0,0,1-.38-3.64c.73-1.12,1.61-2.13,2.41-3.2s1.75-2.2,2.47-3.39.31-2.5-1-3.49-2.2-1-3.24.14A82.51,82.51,0,0,0,30.7,70.9a2.72,2.72,0,0,0,.51,3.51,11.21,11.21,0,0,0,2,1.6c3.52,2.29,7.06,4.55,10.59,6.83a17,17,0,0,1,2,1.52c1.51,1.36,1.73,2.37,1,4.23-.25.62-.59,1.2-.88,1.8l-8.57,17.73c-.37.77-.79,1.52-1.13,2.29a1.63,1.63,0,0,1-1.92,1,7.58,7.58,0,0,1-1.44-.21c-3.45-1.19-6.92-2.32-10.32-3.64-2.12-.82-2.63-2-2.07-4.21.33-1.35,1-2.62,1.4-4a34.51,34.51,0,0,0,1-3.48,3,3,0,0,0-1.3-2.86,2,2,0,0,0-3.25.5,10.22,10.22,0,0,0-1,1.94c-1.5,3.92-3,7.85-4.43,11.78a5.62,5.62,0,0,0-.28,1c-.3,1.89.14,2.69,1.91,3.43a18.44,18.44,0,0,0,1.9.64c4.49,1.34,9,2.64,13.46,4,2.65.82,3.48,2.22,3.05,5-.25,1.68-.53,3.37-.94,5a54.89,54.89,0,0,0-1.68,9.87,18.27,18.27,0,0,1-.69,3.95c-.57,2-1.52,2.7-3.59,2.67-3.41-.05-6.81-.22-10.22-.35a4.7,4.7,0,0,1-.9-.15c-1.72-.37-2.41-1.07-2.57-2.82-.1-1.21,0-2.43,0-3.65,0-1,0-2.07,0-3.1a2.09,2.09,0,0,0-1.5-2.24,2.46,2.46,0,0,0-3,1.09,6.79,6.79,0,0,0-1,2.15,43.3,43.3,0,0,0-.74,10.9A2.11,2.11,0,0,0,8,147a15.5,15.5,0,0,0,2.89.32c2.31.06,4.63,0,6.94.09s4.5.2,6.74.38c3,.25,3.91,1.31,4,4.29.09,2.79.18,5.59.31,8.38a24.86,24.86,0,0,0,.3,2.72c.29,1.79.74,3.57.91,5.38.2,2-.22,2.57-2.09,3.31-3.92,1.55-8.07,1.74-12.2,1.94-1.93.1-2.9-.86-3.3-2.75-.19-.94-.19-1.93-.3-2.89a12.48,12.48,0,0,0-.41-2.69,3.34,3.34,0,0,0-1.32-1.62,2.77,2.77,0,0,0-4.24,2.46A96,96,0,0,0,8.5,179.62c.35,1.58,1.5,2,3.14,1.56,1.11-.3,2.21-.66,3.33-.9,3.21-.69,6.43-1.34,9.65-2a26.42,26.42,0,0,1,3.42-.53c2.33-.16,3.53.72,4.17,2.93.33,1.11.59,2.24.95,3.33,1.73,5.26,3.46,10.51,5.23,15.75,1.06,3.12.57,4.51-2.36,5.92s-5.76,2.62-8.64,3.92c-2.27,1-3.47.6-4.69-1.83-.66-1.3-1.1-2.71-1.7-4A15.08,15.08,0,0,0,19.59,201a3.05,3.05,0,0,0-3.8-.75c-1.2.58-1.49,1.43-1,3.1a2.47,2.47,0,0,0,.18.52c1.77,4.14,3.46,8.31,5.34,12.39,1.2,2.59,2.59,2.95,5.2,1.72.27-.13.54-.28.81-.42l12.18-6.23c.49-.25,1-.48,1.5-.68a3,3,0,0,1,3.63.86,28.12,28.12,0,0,1,1.91,2.67l10.26,15.09c.41.6.88,1.16,1.27,1.78.67,1.05.65,3.42-.12,4.1-2.9,2.6-5.8,5.2-8.8,7.69a3,3,0,0,1-4.26-.4c-1-1-1.8-2.13-2.7-3.21s-1.6-2-2.49-2.91A2.07,2.07,0,0,0,35.7,236c-1.78,1.09-2.1,2.82-.63,4.68,2.59,3.3,5.3,6.51,8,9.74a8.3,8.3,0,0,0,1.32,1.26c1.31,1.06,2.05,1.07,3.42,0a20.39,20.39,0,0,0,1.78-1.57c3.1-2.92,6.18-5.86,9.29-8.77a22.48,22.48,0,0,1,2.41-1.94,2.58,2.58,0,0,1,3.08,0,15.78,15.78,0,0,1,1.43,1.13l12.64,10.78c.56.47,1.14.92,1.66,1.43,1.74,1.72,1.92,2.61.61,4.65-1.85,2.86-3.83,5.63-5.76,8.44a7,7,0,0,1-.72.82c-1.37,1.4-2.19,1.55-3.86.53-1-.63-2-1.45-3-2.1a11.41,11.41,0,0,0-2.57-1.33,2.74,2.74,0,0,0-3.14,1.28,2.26,2.26,0,0,0,.46,3A14.82,14.82,0,0,0,64.29,270q3.25,2.35,6.58,4.61c2.67,1.81,3.59,1.66,5.37-1,1.5-2.22,2.86-4.53,4.31-6.78s3.06-4.83,4.71-7.17c1.33-1.89,1.79-1.94,3.79-1q7.53,3.74,15,7.48c3.11,1.56,3.52,2.58,2.3,5.8-1,2.61-2,5.22-3.12,7.79C102.72,281.12,102,282.32,101.21,283.87Z"/><path class="cls-1" d="M151.92,270.2c-4.6-.26-9.5-.21-14.3-.87-25.93-3.58-48.51-14.23-67.33-32.55a116.59,116.59,0,0,1-31-52.09,142.16,142.16,0,0,1-3.35-16.42,98.06,98.06,0,0,1-.67-25.83c2.82-28.32,14-52.82,34.19-73a116.6,116.6,0,0,1,57.45-31.57A81.42,81.42,0,0,1,140.59,36c2.85-.16,5.69-.52,8.54-.71a77.77,77.77,0,0,1,12.94.55c3.08.3,6.2.38,9.26.85a113.06,113.06,0,0,1,19.92,5.18,117.73,117.73,0,0,1,73.86,78.86A129.3,129.3,0,0,1,269,140.93a105.82,105.82,0,0,1,.42,15.32,117.74,117.74,0,0,1-84.34,109.19,125.69,125.69,0,0,1-19.26,4C161.35,270,156.76,270,151.92,270.2Zm.23-6.31c3.73-.1,7.62-.19,11.51-.31a12.12,12.12,0,0,0,2.17-.24c3.87-.77,7.76-1.48,11.6-2.38A111,111,0,0,0,233,228.82a113,113,0,0,0,12.86-16.55A108.61,108.61,0,0,0,259,182.92c.19-.7.4-1.39.58-2.1.65-2.59,1.32-5.17,1.92-7.76.23-1,.2-2.06.4-3.07a79.16,79.16,0,0,0,1.49-13,111.52,111.52,0,0,0-.61-16.75c-.34-2.77-.76-5.54-1.36-8.27q-1.16-5.23-2.69-10.38c-8-26.77-23.81-47.64-47.17-62.83a108.26,108.26,0,0,0-32-13.87c-.93-.25-1.86-.52-2.81-.73-2-.42-3.9-.93-5.88-1.19-4-.53-8-.9-12-1.37a46.31,46.31,0,0,0-11.1-.24c-4.52.57-9.07,1-13.58,1.59a82.89,82.89,0,0,0-8.4,1.6c-2.46.6-4.84,1.55-7.28,2.25A97.45,97.45,0,0,0,95.31,57.16,109.87,109.87,0,0,0,69.39,78.6a112.34,112.34,0,0,0-26.32,53c-.35,1.72-.3,3.52-.7,5.23-1.92,8.29-1.77,16.65-1.14,25,.3,4,1.77,7.83,1.68,11.89a2.64,2.64,0,0,0,.15.72c1.15,4.15,2.13,8.36,3.49,12.44A110.11,110.11,0,0,0,78,235.29a111.45,111.45,0,0,0,29.58,19.19,113.92,113.92,0,0,0,24.88,7.66,76.9,76.9,0,0,0,8.07,1.39C144.31,263.83,148.15,263.78,152.15,263.89Z"/><path class="cls-1" d="M143.3,83.07c3.16.13,6.32.24,9.48.39a11,11,0,0,1,1.59.33,1.61,1.61,0,0,0,2.19-1.3,1.83,1.83,0,0,0-1.28-2.29,15.22,15.22,0,0,0-2.52-.41,145.34,145.34,0,0,0-36.38,1.35c-9.19,1.45-18.3,3.33-27.37,5.42a14.62,14.62,0,0,1-1.61.27A1.88,1.88,0,0,1,85.74,84a18.37,18.37,0,0,1,1.32-1.73c3.35-4,6.65-7.93,10.08-11.8a9.13,9.13,0,0,1,6.61-3.4c4-.18,8-.38,11.93-.77a178.09,178.09,0,0,1,25.72-.22c6.31.28,12.63.9,18.88,1.79A67.77,67.77,0,0,1,171,70.78a9.84,9.84,0,0,1,3.2,2,10.58,10.58,0,0,0,6.59,2.74c2.18.11,4.35.49,6.52.79,4.63.63,8.38,3.06,11.89,5.94.74.61,1.42,1.3,2.11,2a22.4,22.4,0,0,0,9.95,5.48c3,.85,5.93,1.78,8.8,2.9,3.22,1.26,6.35,2.77,9.52,4.16,1.11.49,2.26.91,3.35,1.44,3.18,1.5,4,6,1.41,8.25a6.82,6.82,0,0,0-2.3,5.09,23.76,23.76,0,0,1-.27,2.54c-.29,1.42-.85,1.94-2.26,1.79a33.69,33.69,0,0,1-5.36-1,111.12,111.12,0,0,0-12.75-3.08,64.47,64.47,0,0,0-25.35,1.36c-6.83,1.68-13.4,4.08-19.22,8.13a54.14,54.14,0,0,0-20.07,25.38,70.86,70.86,0,0,0-3.67,10.49c-2.53,11.53-2.16,23,2.42,33.87,5.68,13.54,15.56,22.75,30,26.61,1.58.42,3.19.68,4.79,1s3.3,2.47,3.58,4.25a31.72,31.72,0,0,0,2.69,8.63,21.28,21.28,0,0,0,2.09,2.73,15.57,15.57,0,0,1,1.83,2.88,1.52,1.52,0,0,1-1,2.3,8.2,8.2,0,0,1-3.36.51c-5.49-.72-11-1.57-16.43-2.41a15.44,15.44,0,0,1-2.44-.72,4.32,4.32,0,0,1-3-4.31c-.1-2.11-.19-4.23-.35-6.34a9.17,9.17,0,0,0-.49-2.3,1.77,1.77,0,0,0-1.82-1.26,2.35,2.35,0,0,0-2.12,1.71,2.58,2.58,0,0,0-.08.91c.28,2.22.51,4.45.92,6.65.29,1.49-.14,2.72-1.49,3a8.53,8.53,0,0,1-8.09-2.07,5.28,5.28,0,0,1-1.79-4.05,41,41,0,0,1,2-13.1,2.4,2.4,0,0,0-1.51-3.17,1.21,1.21,0,0,0-1,.14,6.58,6.58,0,0,0-1.43,1.6,5.42,5.42,0,0,0-.7,2.06c-.42,3.43-1.41,6.8-1.19,10.31a7.72,7.72,0,0,1-.37,2.51,2.71,2.71,0,0,1-3.5,2c-1.13-.26-2.22-.64-3.33-1-1.57-.44-2.52-1.66-3.5-2.82a2,2,0,0,1-.31-1.36,78.64,78.64,0,0,1,1.39-9.37c1-3.88,2.44-7.64,3.72-11.44a6.12,6.12,0,0,1,.69-1.05,2.38,2.38,0,0,0-.65-2.94,1.56,1.56,0,0,0-2.34.51c-.36.63-.64,1.31-.94,2-2.65,5.85-4.74,11.86-5.1,18.35a7.51,7.51,0,0,1-.66,2.43,2.56,2.56,0,0,1-3.63,1.32,22.09,22.09,0,0,1-3.35-1.83,4.3,4.3,0,0,1-2.07-4.18c1.05-7.77,2.89-15.28,6.81-22.18,1.74-3.06,3.37-6.19,5-9.3a2,2,0,0,0-.37-2.78,2.16,2.16,0,0,0-3,.85,66.34,66.34,0,0,0-6.41,11.65,89.6,89.6,0,0,0-5,16.58,4.52,4.52,0,0,0-.11,1.27,3.36,3.36,0,0,1-5.45,2.83,31.52,31.52,0,0,0-2.76-1.78c-2.07-1-2.73-3.75-2.24-5.49,2.07-7.32,4.35-14.56,8.18-21.21,2.73-4.76,5.49-9.48,9.39-13.42a34.75,34.75,0,0,0,3.08-3.84c1-1.34,1-2.24.24-2.9-1-.81-2-.66-3.18.52a69.46,69.46,0,0,0-11.28,14.75,93.21,93.21,0,0,0-8.75,20.8,12.82,12.82,0,0,1-1.27,2.8,2.15,2.15,0,0,1-3,.91,30.09,30.09,0,0,1-5-3.31c-1.69-1.45-1.77-3.53-1.22-5.57a79.72,79.72,0,0,1,5.34-14.15,87.34,87.34,0,0,1,23.4-29.52,31.46,31.46,0,0,1,3.61-2.46c.74-.44,1.27-.9,1.22-1.84a2.45,2.45,0,0,0-1.35-2,1.71,1.71,0,0,0-1.5.18c-4.39,3.46-9,6.69-12.8,10.83a86.4,86.4,0,0,0-17.32,26.62c-.85,2.14-1.67,4.29-2.52,6.43a16.48,16.48,0,0,1-.79,1.64,3.08,3.08,0,0,1-5.06.77,50.13,50.13,0,0,1-4.88-6.77,5,5,0,0,1,0-4.43,11,11,0,0,1,1.08-2.1c4.31-6.49,8.53-13,13-19.4,5.83-8.3,13.25-15.06,21.4-21,1.86-1.36,3.93-2.42,5.91-3.62,2.14-1.28,4.31-2.52,6.4-3.87a1.89,1.89,0,0,0,.34-3.21,1.71,1.71,0,0,0-1.45-.31c-1.68.67-3.33,1.43-4.94,2.25a79,79,0,0,0-18.61,13.7A126.6,126.6,0,0,0,89.2,167.82c-2.82,4-5.53,8.15-8.22,12.28a4.11,4.11,0,0,1-3.3,2,1.82,1.82,0,0,1-2-1.2c-.86-2-1.82-3.85-2.75-5.76a5.48,5.48,0,0,1,0-5.27c7.17-12.69,15.35-24.57,27.17-33.5A85.54,85.54,0,0,1,128,122.2c1.62-.47,3.31-.71,5-1.09a3.54,3.54,0,0,0,1.3-.57c1-.75,1.23-1.47.85-2.34a1.91,1.91,0,0,0-2.27-1.09c-.84.13-1.67.33-2.5.52a80,80,0,0,0-42.4,24.63,145.24,145.24,0,0,0-13.5,17,4.26,4.26,0,0,1-1.3,1.45,2.09,2.09,0,0,1-3.15-1.59c-.44-2.33-.77-4.68-1-7-.21-1.69-.23-3.4-.36-5.09a5.8,5.8,0,0,1,1.63-4.79c9.47-9.72,19.64-18.57,31.43-25.39a77,77,0,0,1,14.62-6.54,128.85,128.85,0,0,1,17.19-4,45.85,45.85,0,0,1,6.54-.32,10.15,10.15,0,0,1,1.1.07,1.87,1.87,0,0,0,1.84-1.24,1.59,1.59,0,0,0-.43-2,4.81,4.81,0,0,0-1.36-.84,38.47,38.47,0,0,1-15.3-9.61,38.62,38.62,0,0,1-3.4-4.49,2.49,2.49,0,0,1-.26-.48c-.87-1.84-.32-3,1.7-3.17,3.81-.41,7.62-.82,11.44-1.06,2.67-.16,5.35,0,8,0Zm38.46,2.68a12.66,12.66,0,0,0,.69,1.84,6.87,6.87,0,0,0,4,3.24c2.64.86,5.49,1,8,2.37a2,2,0,0,0,1.78-.41,1.72,1.72,0,0,0,.45-2.15,11.86,11.86,0,0,1-.81-2,6,6,0,0,0-3.22-3.75,19.67,19.67,0,0,0-2.15-1,11.29,11.29,0,0,0-7.48.15A1.66,1.66,0,0,0,181.76,85.75Z"/><path class="cls-1" d="M199.12,194.46c-1.9-3.2-.62-6.08,3-6.67a36.66,36.66,0,0,1,4.69-.43,3,3,0,0,1,3,2.24,2.6,2.6,0,0,1-1.36,3.23,10.73,10.73,0,0,0-2.33,1.74c-1.3,1.29-1.14,2.81.13,4.12,3.7,3.8,5.34,8.27,3.79,13.5A10.42,10.42,0,0,1,197.1,219c-4.52-1.21-9.15-2-13.7-3-3.37-.79-6.74-1.63-10-2.68-5.59-1.78-10.08-5.35-14.18-9.39a45,45,0,0,1-13.13-24.34,19.78,19.78,0,0,1-.37-2.53c-.37-7.65-1-15.35,1.77-22.75a73.62,73.62,0,0,1,9-17,38.35,38.35,0,0,1,5.25-5.57,60.47,60.47,0,0,1,30.16-15c1.67-.33,3.37-.48,5-.79a4.71,4.71,0,0,1,4.81,1.91c.27.33.52.68.8,1,.89,1,1.57,1,2.35-.11.21-.29.36-.64.58-.92a2.75,2.75,0,0,1,3.53-.93,2.57,2.57,0,0,1,1.85,3c-.22,1.93-.64,3.82-.92,5.74a5,5,0,0,0,.06,2,1.61,1.61,0,0,0,2.64.6,32.54,32.54,0,0,0,3.59-4.1c1-1.42,1.8-3,2.72-4.53.37-.62.84-1.19,1.27-1.77.91-1.22,2.14-1.23,3.44-.88a2,2,0,0,1,1.71,2.25,14.39,14.39,0,0,1-.78,4.08,17.37,17.37,0,0,0-1.13,7.81c.61,10.26,1,20.53,1.37,30.81.13,3.28,0,6.58.2,9.85a4.39,4.39,0,0,1-4.77,4.51c-1.38-.24-2.79-.25-4.18-.38a3.1,3.1,0,0,0-2.49.91c-.89.85-1,1.36-.42,2.73a3.39,3.39,0,0,1-.74,3.53,3.11,3.11,0,0,1-3.53.7c-2.43-1.36-5-1.3-7.62-1a19.46,19.46,0,0,0-9.49,4,10.3,10.3,0,0,0-3.91,6.4c-.71,3.27,1.37,5.31,4.06,6.18a5.23,5.23,0,0,0,6.58-3.09C198.74,195.6,198.9,195.08,199.12,194.46Zm20.2-36.54h.14q-.32-6.27-.62-12.53a5,5,0,0,0-.06-.54,2.37,2.37,0,0,0-2-2.28,2.53,2.53,0,0,0-2.94,1.3c-1.11,2.19-2.63,4.18-2.52,6.9.08,1.84-1.59,2.87-3.42,2.6a4.07,4.07,0,0,1-3-2.15,6.25,6.25,0,0,0-4-2.9,15,15,0,0,1-4.1-1.24,3.06,3.06,0,0,1-1.65-2.78,2.46,2.46,0,0,1,1.53-2.64,33.89,33.89,0,0,1,5.93-2.25,78.41,78.41,0,0,1,8.67-1.11,13.6,13.6,0,0,0,4.74-1.22,4,4,0,0,0,2.17-3.13,1.93,1.93,0,0,0-2.24-2.19,27.42,27.42,0,0,0-2.85.51c-1.77.4-3.51,1-5.29,1.22-3.24.46-6.5.83-9.76,1.05a7,7,0,0,0-5.91,3.95c-5.08,8.68-11.62,15.86-20.8,20.38-5,2.46-5.8,10.1-2.38,13.12a23.29,23.29,0,0,1,3.36,3.59c1.5,2,2.58,4.16,1.3,6.89s-.38,5.45,2.1,7.67a2.69,2.69,0,0,0,2.33.69c2.59-.35,3.94-2,4.6-4.36a18.17,18.17,0,0,1,2.72-5.51,23.76,23.76,0,0,1,13.52-9.65,20.86,20.86,0,0,1,9-.58,44.73,44.73,0,0,0,8.35.33c2.27-.06,3.35-1.39,3.44-3.67,0-.72,0-1.46,0-2.18C219.58,162.77,219.45,160.34,219.32,157.92Z"/><path class="cls-1" d="M68.26,130.64c.53-3.73,1-7.46,1.61-11.18a5.4,5.4,0,0,1,2.71-3.9,160.75,160.75,0,0,1,31.75-15,114.06,114.06,0,0,1,16.43-4.1,5.81,5.81,0,0,1,5.75,2A4.31,4.31,0,0,0,128,99.45c.89.39,1.47,1,1.27,2a2.35,2.35,0,0,1-1.78,2.08c-2,.44-4,.88-6,1.41a83.07,83.07,0,0,0-23.12,10.17A200.29,200.29,0,0,0,74.12,133c-.42.36-.82.73-1.25,1.08a2.5,2.5,0,0,1-3,.54,2.37,2.37,0,0,1-1.43-2.66,7.69,7.69,0,0,0,0-1.27Z"/><path class="cls-1" d="M113.79,85.61h1.27a2.13,2.13,0,0,1,2,1.3,9,9,0,0,0,1.54,2.22,2.85,2.85,0,0,1,1,3.11A3.21,3.21,0,0,1,117,94.3c-3.61.8-7.25,1.53-10.81,2.56a142.29,142.29,0,0,0-22.26,9.06c-1.74.85-3.42,1.83-5.13,2.75-.21.12-.42.24-.64.35a2.78,2.78,0,0,1-3.52-.36,2.89,2.89,0,0,1-.6-3.36c1.18-2.86,2.47-5.68,3.82-8.46.46-1,.64-2,1.61-2.8a7.09,7.09,0,0,1,2.65-1.48c7.38-1.8,14.73-3.68,22.13-5.4,3.12-.73,6.33-1.14,9.5-1.69Z"/></g></g></svg>